  0
SECTION
  2
HEADER
  9
$ACADVER
  1
AC1014
  9
$ACADMAINTVER
 70
     9
  9
$DWGCODEPAGE
  3
ANSI_1252
  9
$INSBASE
 10
0.0
 20
0.0
 30
0.0
  9
$EXTMIN
 10
637.795414
 20
1867.098411703125
 30
0.0
  9
$EXTMAX
 10
7818.367625
 20
6451.689951
 30
0.0
  9
$LIMMIN
 10
0.0
 20
0.0
  9
$LIMMAX
 10
12.0
 20
9.0
  9
$ORTHOMODE
 70
     0
  9
$REGENMODE
 70
     1
  9
$FILLMODE
 70
     1
  9
$QTEXTMODE
 70
     0
  9
$MIRRTEXT
 70
     1
  9
$DRAGMODE
 70
     2
  9
$LTSCALE
 40
1.0
  9
$OSMODE
 70
   511
  9
$ATTMODE
 70
     1
  9
$TEXTSIZE
 40
2.5
  9
$TRACEWID
 40
0.05
  9
$TEXTSTYLE
  7
STANDARD
  9
$CLAYER
  8
0
  9
$CELTYPE
  6
BYBLOCK
  9
$CECOLOR
 62
   256
  9
$CELTSCALE
 40
1.0
  9
$DELOBJ
 70
     1
  9
$DISPSILH
 70
     0
  9
$DIMSCALE
 40
1.0
  9
$DIMASZ
 40
0.18
  9
$DIMEXO
 40
0.0625
  9
$DIMDLI
 40
0.38
  9
$DIMRND
 40
0.0
  9
$DIMDLE
 40
0.0
  9
$DIMEXE
 40
0.18
  9
$DIMTP
 40
0.0
  9
$DIMTM
 40
0.0
  9
$DIMTXT
 40
0.18
  9
$DIMCEN
 40
0.09
  9
$DIMTSZ
 40
0.0
  9
$DIMTOL
 70
     0
  9
$DIMLIM
 70
     0
  9
$DIMTIH
 70
     1
  9
$DIMTOH
 70
     1
  9
$DIMSE1
 70
     0
  9
$DIMSE2
 70
     0
  9
$DIMTAD
 70
     0
  9
$DIMZIN
 70
     0
  9
$DIMBLK
  1

  9
$DIMASO
 70
     1
  9
$DIMSHO
 70
     1
  9
$DIMPOST
  1

  9
$DIMAPOST
  1

  9
$DIMALT
 70
     0
  9
$DIMALTD
 70
     2
  9
$DIMALTF
 40
25.4
  9
$DIMLFAC
 40
1.0
  9
$DIMTOFL
 70
     0
  9
$DIMTVP
 40
0.0
  9
$DIMTIX
 70
     0
  9
$DIMSOXD
 70
     0
  9
$DIMSAH
 70
     0
  9
$DIMBLK1
  1

  9
$DIMBLK2
  1

  9
$DIMSTYLE
  2
ISO-25
  9
$DIMCLRD
 70
     0
  9
$DIMCLRE
 70
     0
  9
$DIMCLRT
 70
     0
  9
$DIMTFAC
 40
1.0
  9
$DIMGAP
 40
0.09
  9
$DIMJUST
 70
     0
  9
$DIMSD1
 70
     0
  9
$DIMSD2
 70
     0
  9
$DIMTOLJ
 70
     1
  9
$DIMTZIN
 70
     0
  9
$DIMALTZ
 70
     0
  9
$DIMALTTZ
 70
     0
  9
$DIMFIT
 70
     5
  9
$DIMUPT
 70
     0
  9
$DIMUNIT
 70
     2
  9
$DIMDEC
 70
     4
  9
$DIMTDEC
 70
     4
  9
$DIMALTU
 70
     2
  9
$DIMALTTD
 70
     2
  9
$DIMTXSTY
  7
STANDARD
  9
$DIMAUNIT
 70
     0
  9
$LUNITS
 70
     2
  9
$LUPREC
 70
     4
  9
$SKETCHINC
 40
0.1
  9
$FILLETRAD
 40
0.5
  9
$AUNITS
 70
     0
  9
$AUPREC
 70
     0
  9
$MENU
  1
.
  9
$ELEVATION
 40
0.0
  9
$PELEVATION
 40
0.0
  9
$THICKNESS
 40
0.0
  9
$LIMCHECK
 70
     0
  9
$CHAMFERA
 40
0.0
  9
$CHAMFERB
 40
0.0
  9
$CHAMFERC
 40
0.0
  9
$CHAMFERD
 40
0.0
  9
$SKPOLY
 70
     0
  9
$TDCREATE
 40
2447892.708333333
  9
$TDUPDATE
 40
2459065.649859792
  9
$TDINDWG
 40
0.001391875
  9
$TDUSRTIMER
 40
0.001391875
  9
$USRTIMER
 70
     1
  9
$ANGBASE
 50
0.0
  9
$ANGDIR
 70
     0
  9
$PDMODE
 70
     0
  9
$PDSIZE
 40
0.0
  9
$PLINEWID
 40
0.0
  9
$COORDS
 70
     1
  9
$SPLFRAME
 70
     0
  9
$SPLINETYPE
 70
     6
  9
$SPLINESEGS
 70
     8
  9
$ATTDIA
 70
     0
  9
$ATTREQ
 70
     1
  9
$HANDLING
 70
     1
  9
$HANDSEED
  5
1004D
  9
$SURFTAB1
 70
     6
  9
$SURFTAB2
 70
     6
  9
$SURFTYPE
 70
     6
  9
$SURFU
 70
     6
  9
$SURFV
 70
     6
  9
$UCSNAME
  2

  9
$UCSORG
 10
0.0
 20
0.0
 30
0.0
  9
$UCSXDIR
 10
1.0
 20
0.0
 30
0.0
  9
$UCSYDIR
 10
0.0
 20
1.0
 30
0.0
  9
$PUCSNAME
  2

  9
$PUCSORG
 10
0.0
 20
0.0
 30
0.0
  9
$PUCSXDIR
 10
1.0
 20
0.0
 30
0.0
  9
$PUCSYDIR
 10
0.0
 20
1.0
 30
0.0
  9
$USERI1
 70
     0
  9
$USERI2
 70
     0
  9
$USERI3
 70
     0
  9
$USERI4
 70
     0
  9
$USERI5
 70
     0
  9
$USERR1
 40
0.0
  9
$USERR2
 40
0.0
  9
$USERR3
 40
0.0
  9
$USERR4
 40
0.0
  9
$USERR5
 40
0.0
  9
$WORLDVIEW
 70
     1
  9
$SHADEDGE
 70
     3
  9
$SHADEDIF
 70
    70
  9
$TILEMODE
 70
     1
  9
$MAXACTVP
 70
    64
  9
$PINSBASE
 10
0.0
 20
0.0
 30
0.0
  9
$PLIMCHECK
 70
     0
  9
$PEXTMIN
 10
1.000000000000000E+20
 20
1.000000000000000E+20
 30
1.000000000000000E+20
  9
$PEXTMAX
 10
-1.000000000000000E+20
 20
-1.000000000000000E+20
 30
-1.000000000000000E+20
  9
$PLIMMIN
 10
0.0
 20
0.0
  9
$PLIMMAX
 10
0.0
 20
0.0
  9
$UNITMODE
 70
     0
  9
$VISRETAIN
 70
     1
  9
$PLINEGEN
 70
     0
  9
$PSLTSCALE
 70
     1
  9
$TREEDEPTH
 70
  3020
  9
$PICKSTYLE
 70
     1
  9
$CMLSTYLE
  2
STANDARD
  9
$CMLJUST
 70
     0
  9
$CMLSCALE
 40
1.0
  9
$PROXYGRAPHICS
 70
     1
  9
$MEASUREMENT
 70
     1
  0
ENDSEC
  0
SECTION
  2
CLASSES
  0
CLASS
  1
ACDBDICTIONARYWDFLT
  2
AcDbDictionaryWithDefault
  3
ObjectDBX Classes
 90
        0
280
     0
281
     0
  0
CLASS
  1
SCALE
  2
AcDbScale
  3
ObjectDBX Classes
 90
     1153
280
     0
281
     0
  0
CLASS
  1
VISUALSTYLE
  2
AcDbVisualStyle
  3
ObjectDBX Classes
 90
     4095
280
     0
281
     0
  0
CLASS
  1
MATERIAL
  2
AcDbMaterial
  3
ObjectDBX Classes
 90
     1153
280
     0
281
     0
  0
CLASS
  1
TABLESTYLE
  2
AcDbTableStyle
  3
ObjectDBX Classes
 90
     4095
280
     0
281
     0
  0
CLASS
  1
MLEADERSTYLE
  2
AcDbMLeaderStyle
  3
ACDB_MLEADERSTYLE_CLASS
 90
     4095
280
     0
281
     0
  0
CLASS
  1
XRECORD
  2
AcDbXrecord
  3
ObjectDBX Classes
 90
        0
280
     0
281
     0
  0
CLASS
  1
LWPOLYLINE
  2
AcDbPolyline
  3
ObjectDBX Classes
 90
        0
280
     0
281
     1
  0
CLASS
  1
HATCH
  2
AcDbHatch
  3
ObjectDBX Classes
 90
        0
280
     0
281
     1
  0
ENDSEC
  0
SECTION
  2
TABLES
  0
TABLE
  2
VPORT
  5
8
330
0
100
AcDbSymbolTable
 70
     1
  0
VPORT
  5
2E
330
8
100
AcDbSymbolTableRecord
100
AcDbViewportTableRecord
  2
*ACTIVE
 70
     0
 10
0.0
 20
0.0
 11
1.0
 21
1.0
 12
-9706.94734018201
 22
3303.369222516766
 13
0.0
 23
0.0
 14
10.0
 24
10.0
 15
10.0
 25
10.0
 16
0.0
 26
0.0
 36
1.0
 17
0.0
 27
0.0
 37
0.0
 40
29577.03526540454
 41
2.22043795620438
 42
50.0
 43
0.0
 44
0.0
 50
0.0
 51
0.0
 71
    16
 72
   100
 73
     1
 74
     3
 75
     0
 76
     0
 77
     0
 78
     0
  0
ENDTAB
  0
TABLE
  2
LTYPE
  5
5
330
0
100
AcDbSymbolTable
 70
     1
  0
LTYPE
  5
14
330
5
100
AcDbSymbolTableRecord
100
AcDbLinetypeTableRecord
  2
BYBLOCK
 70
     0
  3

 72
    65
 73
     0
 40
0.0
  0
LTYPE
  5
15
330
5
100
AcDbSymbolTableRecord
100
AcDbLinetypeTableRecord
  2
BYLAYER
 70
     0
  3

 72
    65
 73
     0
 40
0.0
  0
LTYPE
  5
16
330
5
100
AcDbSymbolTableRecord
100
AcDbLinetypeTableRecord
  2
CONTINUOUS
 70
     0
  3
Solid line
 72
    65
 73
     0
 40
0.0
  0
ENDTAB
  0
TABLE
  2
LAYER
  5
2
330
0
100
AcDbSymbolTable
 70
     1
  0
LAYER
  5
50
330
2
100
AcDbSymbolTableRecord
100
AcDbLayerTableRecord
  2
0
 70
     0
 62
     7
  6
CONTINUOUS
  0
ENDTAB
  0
TABLE
  2
STYLE
  5
3
330
0
100
AcDbSymbolTable
 70
     1
  0
STYLE
  5
11
330
3
100
AcDbSymbolTableRecord
100
AcDbTextStyleTableRecord
  2
STANDARD
 70
     0
 40
0.0
 41
1.0
 50
0.0
 71
     0
 42
2.5
  3
txt
  4

  0
ENDTAB
  0
TABLE
  2
VIEW
  5
6
330
0
100
AcDbSymbolTable
 70
     0
  0
ENDTAB
  0
TABLE
  2
UCS
  5
7
330
0
100
AcDbSymbolTable
 70
     0
  0
ENDTAB
  0
TABLE
  2
APPID
  5
9
330
0
100
AcDbSymbolTable
 70
     1
  0
APPID
  5
12
330
9
100
AcDbSymbolTableRecord
100
AcDbRegAppTableRecord
  2
ACAD
 70
     0
  0
ENDTAB
  0
TABLE
  2
DIMSTYLE
  5
A
330
0
100
AcDbSymbolTable
 70
     1
  0
DIMSTYLE
105
27
330
A
100
AcDbSymbolTableRecord
100
AcDbDimStyleTableRecord
  2
ISO-25
 70
     0
  3

  4

  5

  6

  7

 40
1.0
 41
2.5
 42
0.625
 43
3.75
 44
1.25
 45
0.0
 46
0.0
 47
0.0
 48
0.0
140
2.5
141
2.5
142
0.0
143
0.03937007874016
144
1.0
145
0.0
146
1.0
147
0.625
 71
     0
 72
     0
 73
     0
 74
     0
 75
     0
 76
     0
 77
     1
 78
     8
170
     0
171
     3
172
     1
173
     0
174
     0
175
     0
176
     0
177
     0
178
     0
270
     2
271
     2
272
     2
273
     2
274
     3
340
11
275
     0
280
     0
281
     0
282
     0
283
     0
284
     8
285
     0
286
     0
287
     3
288
     0
  0
ENDTAB
  0
TABLE
  2
BLOCK_RECORD
  5
1
330
0
100
AcDbSymbolTable
 70
     0
  0
BLOCK_RECORD
  5
1F
102
{ACAD_XDICTIONARY
360
1004A
102
}
330
1
100
AcDbSymbolTableRecord
100
AcDbBlockTableRecord
  2
*MODEL_SPACE
  0
BLOCK_RECORD
  5
1B
330
1
100
AcDbSymbolTableRecord
100
AcDbBlockTableRecord
  2
*PAPER_SPACE
  0
ENDTAB
  0
ENDSEC
  0
SECTION
  2
BLOCKS
  0
BLOCK
  5
20
330
1F
100
AcDbEntity
  8
0
100
AcDbBlockBegin
  2
*MODEL_SPACE
 70
     0
 10
0.0
 20
0.0
 30
0.0
  3
*MODEL_SPACE
  1

  0
ENDBLK
  5
21
330
1F
100
AcDbEntity
  8
0
100
AcDbBlockEnd
  0
BLOCK
  5
1C
330
1B
100
AcDbEntity
 67
     1
  8
0
100
AcDbBlockBegin
  2
*PAPER_SPACE
 70
     0
 10
0.0
 20
0.0
 30
0.0
  3
*PAPER_SPACE
  1

  0
ENDBLK
  5
1D
330
1B
100
AcDbEntity
 67
     1
  8
0
100
AcDbBlockEnd
  0
ENDSEC
  0
SECTION
  2
ENTITIES
  0
SPLINE
  5
100
330
1F
100
AcDbEntity
  8
0
 62
     7
100
AcDbSpline
210
0.0
220
0.0
230
1.0
 70
     8
 71
     3
 72
     8
 73
     4
 74
     0
 42
0.000000001
 43
0.0000001
 40
0.0
 40
0.0
 40
0.0
 40
0.0
 40
1.0
 40
1.0
 40
1.0
 40
1.0
 10
637.795414
 20
2018.558688
 30
0.0
 10
637.795414
 20
1973.74328
 30
0.0
 10
657.622481
 20
1931.223999
 30
0.0
 10
691.953075
 20
1902.41721
 30
0.0
  0
SPLINE
  5
101
330
1F
100
AcDbEntity
  8
0
 62
     7
100
AcDbSpline
210
0.0
220
0.0
230
1.0
 70
     8
 71
     3
 72
     8
 73
     4
 74
     0
 42
0.000000001
 43
0.0000001
 40
0.0
 40
0.0
 40
0.0
 40
0.0
 40
1.0
 40
1.0
 40
1.0
 40
1.0
 10
691.953075
 20
1902.41721
 30
0.0
 10
726.283669
 20
1873.610421
 30
0.0
 10
771.59992
 20
1861.467968
 30
0.0
 10
815.734481
 20
1869.250082
 30
0.0
  0
SPLINE
  5
102
330
1F
100
AcDbEntity
  8
0
 62
     7
100
AcDbSpline
210
0.0
220
0.0
230
1.0
 70
     8
 71
     3
 72
     8
 73
     4
 74
     0
 42
0.000000001
 43
0.0000001
 40
0.0
 40
0.0
 40
0.0
 40
0.0
 40
1.0
 40
1.0
 40
1.0
 40
1.0
 10
5442.785972
 20
3853.638423
 30
0.0
 10
5442.785972
 20
3898.453831
 30
0.0
 10
5422.958906
 20
3940.973112
 30
0.0
 10
5388.628312
 20
3969.779901
 30
0.0
  0
SPLINE
  5
103
330
1F
100
AcDbEntity
  8
0
 62
     7
100
AcDbSpline
210
0.0
220
0.0
230
1.0
 70
     8
 71
     3
 72
     8
 73
     4
 74
     0
 42
0.000000001
 43
0.0000001
 40
0.0
 40
0.0
 40
0.0
 40
0.0
 40
1.0
 40
1.0
 40
1.0
 40
1.0
 10
5388.628312
 20
3969.779901
 30
0.0
 10
5354.297718
 20
3998.58669
 30
0.0
 10
5308.981467
 20
4010.729143
 30
0.0
 10
5264.846906
 20
4002.947029
 30
0.0
  0
SPLINE
  5
104
330
1F
100
AcDbEntity
  8
0
 62
     7
100
AcDbSpline
210
0.0
220
0.0
230
1.0
 70
     8
 71
     3
 72
     8
 73
     4
 74
     0
 42
0.000000001
 43
0.0000001
 40
0.0
 40
0.0
 40
0.0
 40
0.0
 40
1.0
 40
1.0
 40
1.0
 40
1.0
 10
4741.497984
 20
3910.666493
 30
0.0
 10
4630.505273
 20
3891.095483
 30
0.0
 10
4549.585429
 20
3794.658969
 30
0.0
 10
4549.585429
 20
3681.954016
 30
0.0
  0
SPLINE
  5
105
330
1F
100
AcDbEntity
  8
0
 62
     7
100
AcDbSpline
210
0.0
220
0.0
230
1.0
 70
     8
 71
     3
 72
     8
 73
     4
 74
     0
 42
0.000000001
 43
0.0000001
 40
0.0
 40
0.0
 40
0.0
 40
0.0
 40
1.0
 40
1.0
 40
1.0
 40
1.0
 10
4549.585429
 20
2708.31281
 30
0.0
 10
4549.585429
 20
2663.497402
 30
0.0
 10
4569.412496
 20
2620.978122
 30
0.0
 10
4603.74309
 20
2592.171333
 30
0.0
  0
SPLINE
  5
106
330
1F
100
AcDbEntity
  8
0
 62
     7
100
AcDbSpline
210
0.0
220
0.0
230
1.0
 70
     8
 71
     3
 72
     8
 73
     4
 74
     0
 42
0.000000001
 43
0.0000001
 40
0.0
 40
0.0
 40
0.0
 40
0.0
 40
1.0
 40
1.0
 40
1.0
 40
1.0
 10
4603.74309
 20
2592.171333
 30
0.0
 10
4638.073684
 20
2563.364544
 30
0.0
 10
4683.389935
 20
2551.222091
 30
0.0
 10
4727.524496
 20
2559.004205
 30
0.0
  0
SPLINE
  5
107
330
1F
100
AcDbEntity
  8
0
 62
     7
100
AcDbSpline
210
0.0
220
0.0
230
1.0
 70
     8
 71
     3
 72
     8
 73
     4
 74
     0
 42
0.000000001
 43
0.0000001
 40
0.0
 40
0.0
 40
0.0
 40
0.0
 40
1.0
 40
1.0
 40
1.0
 40
1.0
 10
5250.873417
 20
2651.28474
 30
0.0
 10
5361.866129
 20
2670.85575
 30
0.0
 10
5442.785972
 20
2767.292264
 30
0.0
 10
5442.785972
 20
2879.997217
 30
0.0
  0
SPLINE
  5
108
330
1F
100
AcDbEntity
  8
0
 62
     7
100
AcDbSpline
210
0.0
220
0.0
230
1.0
 70
     8
 71
     3
 72
     8
 73
     4
 74
     0
 42
0.000000001
 43
0.0000001
 40
0.0
 40
0.0
 40
0.0
 40
0.0
 40
1.0
 40
1.0
 40
1.0
 40
1.0
 10
6961.925086
 20
4657.628648
 30
0.0
 10
6961.925086
 20
4592.35608
 30
0.0
 10
6990.802733
 20
4530.427766
 30
0.0
 10
7040.804422
 20
4488.471368
 30
0.0
  0
SPLINE
  5
109
330
1F
100
AcDbEntity
  8
0
 62
     7
100
AcDbSpline
210
0.0
220
0.0
230
1.0
 70
     8
 71
     3
 72
     8
 73
     4
 74
     0
 42
0.000000001
 43
0.0000001
 40
0.0
 40
0.0
 40
0.0
 40
0.0
 40
1.0
 40
1.0
 40
1.0
 40
1.0
 10
7040.804422
 20
4488.471368
 30
0.0
 10
7090.80611
 20
4446.51497
 30
0.0
 10
7156.808144
 20
4428.829778
 30
0.0
 10
7221.089075
 20
4440.16424
 30
0.0
  0
SPLINE
  5
10A
330
1F
100
AcDbEntity
  8
0
 62
     7
100
AcDbSpline
210
0.0
220
0.0
230
1.0
 70
     8
 71
     3
 72
     8
 73
     4
 74
     0
 42
0.000000001
 43
0.0000001
 40
0.0
 40
0.0
 40
0.0
 40
0.0
 40
1.0
 40
1.0
 40
1.0
 40
1.0
 10
3392.992206
 20
4028.329489
 30
0.0
 10
3392.992206
 20
3963.056921
 30
0.0
 10
3421.869853
 20
3901.128607
 30
0.0
 10
3471.871541
 20
3859.172209
 30
0.0
  0
SPLINE
  5
10B
330
1F
100
AcDbEntity
  8
0
 62
     7
100
AcDbSpline
210
0.0
220
0.0
230
1.0
 70
     8
 71
     3
 72
     8
 73
     4
 74
     0
 42
0.000000001
 43
0.0000001
 40
0.0
 40
0.0
 40
0.0
 40
0.0
 40
1.0
 40
1.0
 40
1.0
 40
1.0
 10
3471.871541
 20
3859.172209
 30
0.0
 10
3521.87323
 20
3817.215811
 30
0.0
 10
3587.875264
 20
3799.530619
 30
0.0
 10
3652.156196
 20
3810.865082
 30
0.0
  0
SPLINE
  5
10C
330
1F
100
AcDbEntity
  8
0
 62
     7
100
AcDbSpline
210
0.0
220
0.0
230
1.0
 70
     8
 71
     3
 72
     8
 73
     4
 74
     0
 42
0.000000001
 43
0.0000001
 40
0.0
 40
0.0
 40
0.0
 40
0.0
 40
1.0
 40
1.0
 40
1.0
 40
1.0
 10
3044.148615
 20
4267.215224
 30
0.0
 10
3177.248807
 20
4292.083703
 30
0.0
 10
3273.733833
 20
4408.265685
 30
0.0
 10
3273.733833
 20
4543.669165
 30
0.0
  0
SPLINE
  5
10D
330
1F
100
AcDbEntity
  8
0
 62
     7
100
AcDbSpline
210
0.0
220
0.0
230
1.0
 70
     8
 71
     3
 72
     8
 73
     4
 74
     0
 42
0.000000001
 43
0.0000001
 40
0.0
 40
0.0
 40
0.0
 40
0.0
 40
1.0
 40
1.0
 40
1.0
 40
1.0
 10
3273.733833
 20
5397.315775
 30
0.0
 10
3272.153634
 20
5462.399721
 30
0.0
 10
3240.420183
 20
5523.054306
 30
0.0
 10
3187.854515
 20
5561.463519
 30
0.0
  0
SPLINE
  5
10E
330
1F
100
AcDbEntity
  8
0
 62
     7
100
AcDbSpline
210
0.0
220
0.0
230
1.0
 70
     8
 71
     3
 72
     8
 73
     4
 74
     0
 42
0.000000001
 43
0.0000001
 40
0.0
 40
0.0
 40
0.0
 40
0.0
 40
1.0
 40
1.0
 40
1.0
 40
1.0
 10
3187.854515
 20
5561.463519
 30
0.0
 10
3135.288847
 20
5599.872732
 30
0.0
 10
3067.859696
 20
5611.675278
 30
0.0
 10
3005.372958
 20
5593.404408
 30
0.0
  0
SPLINE
  5
10F
330
1F
100
AcDbEntity
  8
0
 62
     7
100
AcDbSpline
210
0.0
220
0.0
230
1.0
 70
     8
 71
     3
 72
     8
 73
     4
 74
     0
 42
0.000000001
 43
0.0000001
 40
0.0
 40
0.0
 40
0.0
 40
0.0
 40
1.0
 40
1.0
 40
1.0
 40
1.0
 10
1593.400288
 20
5479.398343
 30
0.0
 10
1593.400288
 20
5456.571609
 30
0.0
 10
1603.499207
 20
5434.914408
 30
0.0
 10
1620.985499
 20
5420.241666
 30
0.0
  0
SPLINE
  5
110
330
1F
100
AcDbEntity
  8
0
 62
     7
100
AcDbSpline
210
0.0
220
0.0
230
1.0
 70
     8
 71
     3
 72
     8
 73
     4
 74
     0
 42
0.000000001
 43
0.0000001
 40
0.0
 40
0.0
 40
0.0
 40
0.0
 40
1.0
 40
1.0
 40
1.0
 40
1.0
 10
1620.985499
 20
5420.241666
 30
0.0
 10
1638.471792
 20
5405.568924
 30
0.0
 10
1661.55363
 20
5399.384164
 30
0.0
 10
1684.033575
 20
5403.347985
 30
0.0
  0
SPLINE
  5
111
330
1F
100
AcDbEntity
  8
0
 62
     7
100
AcDbSpline
210
0.0
220
0.0
230
1.0
 70
     8
 71
     3
 72
     8
 73
     4
 74
     0
 42
0.000000001
 43
0.0000001
 40
0.0
 40
0.0
 40
0.0
 40
0.0
 40
1.0
 40
1.0
 40
1.0
 40
1.0
 10
913.143215
 20
5224.487855
 30
0.0
 10
753.895692
 20
5196.408219
 30
0.0
 10
637.795415
 20
5058.045297
 30
0.0
 10
637.795415
 20
4896.341124
 30
0.0
  0
SPLINE
  5
112
330
1F
100
AcDbEntity
  8
0
 62
     7
100
AcDbSpline
210
0.0
220
0.0
230
1.0
 70
     8
 71
     3
 72
     8
 73
     4
 74
     0
 42
0.000000001
 43
0.0000001
 40
0.0
 40
0.0
 40
0.0
 40
0.0
 40
1.0
 40
1.0
 40
1.0
 40
1.0
 10
637.795414
 20
3529.142963
 30
0.0
 10
637.795414
 20
3467.186828
 30
0.0
 10
665.205818
 20
3408.405028
 30
0.0
 10
712.666971
 20
3368.580392
 30
0.0
  0
SPLINE
  5
113
330
1F
100
AcDbEntity
  8
0
 62
     7
100
AcDbSpline
210
0.0
220
0.0
230
1.0
 70
     8
 71
     3
 72
     8
 73
     4
 74
     0
 42
0.000000001
 43
0.0000001
 40
0.0
 40
0.0
 40
0.0
 40
0.0
 40
1.0
 40
1.0
 40
1.0
 40
1.0
 10
712.666971
 20
3368.580392
 30
0.0
 10
760.128124
 20
3328.755756
 30
0.0
 10
822.776662
 20
3311.969131
 30
0.0
 10
883.791544
 20
3322.727701
 30
0.0
  0
LWPOLYLINE
  5
114
330
1F
100
AcDbEntity
  8
0
 62
     7
100
AcDbPolyline
 90
        3
 70
     0
 43
0.0
 10
4943.624533
 20
3679.399944
 10
4943.624533
 20
2862.948007
 10
5048.746869
 20
2883.665599
  0
LWPOLYLINE
  5
115
330
1F
100
AcDbEntity
  8
0
 62
     7
100
AcDbPolyline
 90
        2
 70
     0
 43
0.0
 10
5048.746869
 20
3700.117536
 10
5048.746869
 20
2883.665599
  0
LWPOLYLINE
  5
116
330
1F
100
AcDbEntity
  8
0
 62
     7
100
AcDbPolyline
 90
        2
 70
     0
 43
0.0
 10
4943.624533
 20
3679.399944
 10
5048.746869
 20
3700.117536
  0
LWPOLYLINE
  5
117
330
1F
100
AcDbEntity
  8
0
 62
     7
100
AcDbPolyline
 90
        3
 70
     0
 43
0.0
 10
1530.698915
 20
3344.515988
 10
1530.698915
 20
1995.317602
 10
815.734481
 20
1869.250082
  0
LWPOLYLINE
  5
118
330
1F
100
AcDbEntity
  8
0
 62
     7
100
AcDbPolyline
 90
        7
 70
     0
 43
0.0
 10
637.795414
 20
2018.558687
 10
637.795414
 20
3187.073009
 10
1031.815378
 20
3256.54936
 10
1031.815378
 20
2285.519489
 10
1136.678951
 20
2189.390367
 10
1136.678951
 20
3275.039637
 10
1530.698915
 20
3344.515988
  0
LWPOLYLINE
  5
119
330
1F
100
AcDbEntity
  8
0
 62
     7
100
AcDbPolyline
 90
       10
 70
     1
 43
0.0
 10
2514.605418
 20
2168.806865
 10
2514.605418
 20
3518.005251
 10
2120.109831
 20
3448.445036
 10
2120.109831
 20
3093.615584
 10
1967.221056
 20
3421.486619
 10
1621.412474
 20
3360.511236
 10
1621.412474
 20
2011.31285
 10
2015.908061
 20
2080.873066
 10
2015.908061
 20
2435.702518
 10
2168.796836
 20
2107.831482
  0
LWPOLYLINE
  5
11A
330
1F
100
AcDbEntity
  8
0
 62
     7
100
AcDbPolyline
 90
       11
 70
     1
 43
0.0
 10
3306.959835
 20
3015.441752
 10
3524.852779
 20
3696.139118
 10
3157.621051
 20
3631.386256
 10
3005.372958
 20
3155.763349
 10
3005.372958
 20
3604.54081
 10
2610.877371
 20
3534.980594
 10
2610.877371
 20
2185.782208
 10
3005.372958
 20
2255.342423
 10
3005.372958
 20
2660.379776
 10
3131.595191
 20
2277.598809
 10
3527.258532
 20
2347.364931
  0
LWPOLYLINE
  5
11B
330
1F
100
AcDbEntity
  8
0
 62
     7
100
AcDbPolyline
 90
       10
 70
     1
 43
0.0
 10
4456.358861
 20
2511.190387
 10
4456.358861
 20
3860.388773
 10
4061.863274
 20
3790.828557
 10
4061.863274
 20
3435.999106
 10
3908.974499
 20
3763.870141
 10
3563.165917
 20
3702.894758
 10
3563.165917
 20
2353.696372
 10
3957.661504
 20
2423.256588
 10
3957.661504
 20
2778.086039
 10
4110.55028
 20
2450.215004
  0
LWPOLYLINE
  5
11C
330
1F
100
AcDbEntity
  8
0
 62
     7
100
AcDbPolyline
 90
        2
 70
     0
 43
0.0
 10
5442.785972
 20
2879.997217
 10
5442.785972
 20
3853.638423
  0
LWPOLYLINE
  5
11D
330
1F
100
AcDbEntity
  8
0
 62
     7
100
AcDbPolyline
 90
        2
 70
     0
 43
0.0
 10
5264.846906
 20
4002.947029
 10
4741.497984
 20
3910.666493
  0
LWPOLYLINE
  5
11E
330
1F
100
AcDbEntity
  8
0
 62
     7
100
AcDbPolyline
 90
        2
 70
     0
 43
0.0
 10
4549.585429
 20
3681.954017
 10
4549.585429
 20
2708.31281
  0
LWPOLYLINE
  5
11F
330
1F
100
AcDbEntity
  8
0
 62
     7
100
AcDbPolyline
 90
        2
 70
     0
 43
0.0
 10
4727.524496
 20
2559.004205
 10
5250.873417
 20
2651.28474
  0
LWPOLYLINE
  5
120
330
1F
100
AcDbEntity
  8
0
 62
     7
100
AcDbPolyline
 90
       13
 70
     1
 43
0.0
 10
6303.510395
 20
4186.091426
 10
6438.621706
 20
3744.162239
 10
6438.621706
 20
4209.915195
 10
6833.149988
 20
4279.481176
 10
6833.149988
 20
2930.28279
 10
6340.82713
 20
2843.472987
 10
6189.5111
 20
3327.662698
 10
6033.74358
 20
2789.325872
 10
5541.802195
 20
2702.583332
 10
5541.802195
 20
4051.781719
 10
5936.330477
 20
4121.3477
 10
5936.330477
 20
3655.594744
 10
6072.13607
 20
4145.293889
  0
LWPOLYLINE
  5
121
330
1F
100
AcDbEntity
  8
0
 62
     7
100
AcDbPolyline
 90
       10
 70
     1
 43
0.0
 10
6925.174682
 20
2946.509226
 10
6925.174682
 20
4295.707613
 10
7270.983263
 20
4356.682996
 10
7423.872038
 20
4028.81196
 10
7423.872038
 20
4383.641411
 10
7818.367625
 20
4453.201628
 10
7818.367625
 20
3104.003241
 10
7472.559043
 20
3043.027858
 10
7319.670269
 20
3370.898894
 10
7319.670269
 20
3016.069442
  0
LWPOLYLINE
  5
122
330
1F
100
AcDbEntity
  8
0
 62
     7
100
AcDbPolyline
 90
        2
 70
     0
 43
0.0
 10
6961.925086
 20
6291.051299
 10
6961.925086
 20
4657.628648
  0
LWPOLYLINE
  5
123
330
1F
100
AcDbEntity
  8
0
 62
     7
100
AcDbPolyline
 90
        2
 70
     0
 43
0.0
 10
7818.367625
 20
4545.480563
 10
7221.089075
 20
4440.16424
  0
LWPOLYLINE
  5
124
330
1F
100
AcDbEntity
  8
0
 62
     7
100
AcDbPolyline
 90
        2
 70
     0
 43
0.0
 10
7818.367625
 20
4922.371784
 10
7818.367625
 20
4545.480563
  0
LWPOLYLINE
  5
125
330
1F
100
AcDbEntity
  8
0
 62
     7
100
AcDbPolyline
 90
        2
 70
     0
 43
0.0
 10
7517.295234
 20
4869.284597
 10
7818.367625
 20
4922.371784
  0
LWPOLYLINE
  5
126
330
1F
100
AcDbEntity
  8
0
 62
     7
100
AcDbPolyline
 90
        2
 70
     0
 43
0.0
 10
7517.295234
 20
5253.836848
 10
7517.295234
 20
4869.284597
  0
LWPOLYLINE
  5
127
330
1F
100
AcDbEntity
  8
0
 62
     7
100
AcDbPolyline
 90
        2
 70
     0
 43
0.0
 10
7705.279952
 20
5286.983625
 10
7517.295234
 20
5253.836848
  0
LWPOLYLINE
  5
128
330
1F
100
AcDbEntity
  8
0
 62
     7
100
AcDbPolyline
 90
        2
 70
     0
 43
0.0
 10
7809.556394
 20
5749.066901
 10
7705.279952
 20
5286.983625
  0
LWPOLYLINE
  5
129
330
1F
100
AcDbEntity
  8
0
 62
     7
100
AcDbPolyline
 90
        2
 70
     0
 43
0.0
 10
7517.295234
 20
5697.533373
 10
7809.556394
 20
5749.066901
  0
LWPOLYLINE
  5
12A
330
1F
100
AcDbEntity
  8
0
 62
     7
100
AcDbPolyline
 90
        2
 70
     0
 43
0.0
 10
7517.295234
 20
6012.086821
 10
7517.295234
 20
5697.533373
  0
LWPOLYLINE
  5
12B
330
1F
100
AcDbEntity
  8
0
 62
     7
100
AcDbPolyline
 90
        2
 70
     0
 43
0.0
 10
7818.367625
 20
6065.174006
 10
7517.295234
 20
6012.086821
  0
LWPOLYLINE
  5
12C
330
1F
100
AcDbEntity
  8
0
 62
     7
100
AcDbPolyline
 90
        2
 70
     0
 43
0.0
 10
7818.367625
 20
6442.065226
 10
7818.367625
 20
6065.174006
  0
LWPOLYLINE
  5
12D
330
1F
100
AcDbEntity
  8
0
 62
     7
100
AcDbPolyline
 90
        2
 70
     0
 43
0.0
 10
6961.925086
 20
6291.051299
 10
7818.367625
 20
6442.065226
  0
LWPOLYLINE
  5
12E
330
1F
100
AcDbEntity
  8
0
 62
     7
100
AcDbPolyline
 90
        8
 70
     1
 43
0.0
 10
5941.215079
 20
4214.487923
 10
5941.215079
 20
5734.181366
 10
5588.225359
 20
5671.939754
 10
5499.212557
 20
6033.135615
 10
6851.160995
 20
6271.520601
 10
6851.160995
 20
5894.629382
 10
6496.585228
 20
5832.108107
 10
6496.585228
 20
4312.414664
  0
LWPOLYLINE
  5
12F
330
1F
100
AcDbEntity
  8
0
 62
     7
100
AcDbPolyline
 90
        3
 70
     1
 43
0.0
 10
4770.594361
 20
4217.611202
 10
5004.518337
 20
4908.244139
 10
5238.380269
 20
4300.09448
  0
LWPOLYLINE
  5
130
330
1F
100
AcDbEntity
  8
0
 62
     7
100
AcDbPolyline
 90
        3
 70
     1
 43
0.0
 10
5004.518337
 20
6451.689951
 10
4139.12953
 20
3896.731619
 10
5869.677614
 20
4201.873937
  0
LWPOLYLINE
  5
131
330
1F
100
AcDbEntity
  8
0
 62
     7
100
AcDbPolyline
 90
        4
 70
     1
 43
0.0
 10
2718.363685
 20
5165.90571
 10
2718.363685
 20
4594.504598
 10
2573.580031
 20
4404.399786
 10
2573.580031
 20
5140.376445
  0
LWPOLYLINE
  5
132
330
1F
100
AcDbEntity
  8
0
 62
     7
100
AcDbPolyline
 90
       14
 70
     0
 43
0.0
 10
3392.992206
 20
4028.329489
 10
3392.992206
 20
5661.75214
 10
4509.732995
 20
5858.663672
 10
4421.156968
 20
5466.154109
 10
3948.362354
 20
5382.787661
 10
3948.362354
 20
5070.316845
 10
4347.720863
 20
5140.734525
 10
4242.003698
 20
4672.266935
 10
3948.362354
 20
4620.490044
 10
3948.362354
 20
4239.985439
 10
4152.578461
 20
4275.994248
 10
4064.002434
 20
3883.484685
 10
3948.362354
 20
3863.094219
 10
3652.156196
 20
3810.865082
  0
LWPOLYLINE
  5
133
330
1F
100
AcDbEntity
  8
0
 62
     7
100
AcDbPolyline
 90
        7
 70
     0
 43
0.0
 10
2018.209883
 20
5419.340924
 10
2018.209883
 20
3522.756261
 10
2573.580031
 20
3620.683003
 10
2573.580031
 20
3997.574222
 10
2751.579223
 20
3652.069063
 10
3310.307426
 20
3750.58792
 10
3044.148615
 20
4267.215224
  0
LWPOLYLINE
  5
134
330
1F
100
AcDbEntity
  8
0
 62
     7
100
AcDbPolyline
 90
        2
 70
     0
 43
0.0
 10
3273.733833
 20
4543.669166
 10
3273.733833
 20
5397.315775
  0
LWPOLYLINE
  5
135
330
1F
100
AcDbEntity
  8
0
 62
     7
100
AcDbPolyline
 90
        2
 70
     0
 43
0.0
 10
3005.372958
 20
5593.404408
 10
2018.209883
 20
5419.340924
  0
LWPOLYLINE
  5
136
330
1F
100
AcDbEntity
  8
0
 62
     7
100
AcDbPolyline
 90
        2
 70
     0
 43
0.0
 10
1593.400288
 20
6050.389033
 10
1593.400288
 20
5479.398344
  0
LWPOLYLINE
  5
137
330
1F
100
AcDbEntity
  8
0
 62
     7
100
AcDbPolyline
 90
       12
 70
     0
 43
0.0
 10
1684.033575
 20
5403.347985
 10
1893.299057
 20
5440.247136
 10
1893.299057
 20
5570.780704
 10
1788.778908
 20
5552.350982
 10
1788.778908
 20
5687.474948
 10
1853.463385
 20
5698.880567
 10
1889.985788
 20
5860.723372
 10
1788.778908
 20
5842.877868
 10
1788.778908
 20
5954.305988
 10
1893.649594
 20
5972.797519
 10
1893.649594
 20
6103.331087
 10
1593.400288
 20
6050.389033
  0
LWPOLYLINE
  5
138
330
1F
100
AcDbEntity
  8
0
 62
     7
100
AcDbPolyline
 90
       12
 70
     1
 43
0.0
 10
1111.646575
 20
5965.442855
 10
1111.646575
 20
5302.420714
 10
1303.747209
 20
5336.293238
 10
1303.747209
 20
5601.891108
 10
1354.656614
 20
5610.86781
 10
1354.656614
 20
5345.26994
 10
1546.757247
 20
5379.142465
 10
1546.757247
 20
6042.164606
 10
1354.656614
 20
6008.292082
 10
1354.656614
 20
5767.448045
 10
1303.747209
 20
5758.471343
 10
1303.747209
 20
5999.31538
  0
LWPOLYLINE
  5
139
330
1F
100
AcDbEntity
  8
0
 62
     7
100
AcDbPolyline
 90
        8
 70
     1
 43
0.0
 10
762.961522
 20
5772.640806
 10
762.961522
 20
5240.938131
 10
955.062155
 20
5274.810656
 10
955.062155
 20
5806.513331
 10
1080.110687
 20
5828.562761
 10
1080.110687
 20
5959.882227
 10
637.795414
 20
5881.890111
 10
637.795414
 20
5750.570645
  0
LWPOLYLINE
  5
13A
330
1F
100
AcDbEntity
  8
0
 62
     7
100
AcDbPolyline
 90
        2
 70
     0
 43
0.0
 10
637.795414
 20
3529.142963
 10
637.795414
 20
4896.341124
  0
LWPOLYLINE
  5
13B
330
1F
100
AcDbEntity
  8
0
 62
     7
100
AcDbPolyline
 90
       12
 70
     0
 43
0.0
 10
913.143215
 20
5224.487855
 10
1893.299057
 20
5397.315775
 10
1893.299057
 20
4761.362612
 10
1337.928908
 20
4421.031348
 10
1337.928908
 20
4922.497814
 10
1193.165562
 20
4896.97213
 10
1193.165562
 20
3754.169907
 10
1337.928908
 20
3779.695591
 10
1337.928908
 20
4150.820601
 10
1893.299057
 20
4491.151865
 10
1893.299057
 20
3500.731112
 10
883.791544
 20
3322.727701
  0
ENDSEC
  0
SECTION
  2
OBJECTS
  0
DICTIONARY
  5
C
330
0
100
AcDbDictionary
  3
ACAD_GROUP
350
D
  3
ACAD_MLINESTYLE
350
17
  3
ACAD_SCALELIST
350
10003
  3
APPDATA
350
10049
  3
DWGPROPS
350
1004C
  0
DICTIONARY
  5
1004A
330
1F
100
AcDbDictionary
280
     1
  3
DIM_BOUNDING_BOXES_V1
360
1004B
  0
DICTIONARY
  5
D
330
C
100
AcDbDictionary
  0
DICTIONARY
  5
17
330
C
100
AcDbDictionary
  3
STANDARD
350
FFFF
  0
DICTIONARY
  5
10003
102
{ACAD_REACTORS
330
C
102
}
330
C
100
AcDbDictionary
  0
DICTIONARY
  5
10049
102
{ACAD_REACTORS
330
C
102
}
330
C
100
AcDbDictionary
  0
XRECORD
  5
1004C
102
{ACAD_REACTORS
330
C
102
}
330
C
100
AcDbXrecord
  1
DWGPROPS COOKIE
  2

  3

  4

  6

  7

  8
ealex
  9

300
=
301
=
302
=
303
=
304
=
305
=
306
=
307
=
308
=
309
=
 40
0.0
 41
0.0
 42
2459065.941526458
  1

 90
        0
  0
DICTIONARY
  5
1004B
102
{ACAD_REACTORS
330
1004A
102
}
330
1004A
100
AcDbDictionary
  0
MLINESTYLE
  5
FFFF
102
{ACAD_REACTORS
330
17
102
}
330
17
100
AcDbMlineStyle
  2
Standard
 70
     0
  3

 62
   256
 51
90.0
 52
90.0
 71
     2
 49
0.5
 62
   256
  6
BYLAYER
 49
-0.5
 62
   256
  6
BYLAYER
  0
ENDSEC
  0
EOF
