  0
SECTION
  2
HEADER
  9
$ACADVER
  1
AC1014
  9
$HANDSEED
  5
FFFF
  9
$MEASUREMENT
 70
     1
  0
ENDSEC
  0
SECTION
  2
TABLES
  0
TABLE
  2
VPORT
  5
8
330
0
100
AcDbSymbolTable
 70
     4
  0
VPORT
  5
2E
330
8
100
AcDbSymbolTableRecord
100
AcDbViewportTableRecord
  2
*ACTIVE
 70
     0
 10
0.0
 20
0.0
 11
1.0
 21
1.0
 12
210.0
 22
148.5
 13
0.0
 23
0.0
 14
10.0
 24
10.0
 15
10.0
 25
10.0
 16
0.0
 26
0.0
 36
1.0
 17
0.0
 27
0.0
 37
0.0
 40
341.0
 41
1.24
 42
50.0
 43
0.0
 44
0.0
 50
0.0
 51
0.0
 71
     0
 72
   100
 73
     1
 74
     3
 75
     0
 76
     0
 77
     0
 78
     0
  0
ENDTAB
  0
TABLE
  2
LTYPE
  5
5
330
0
100
AcDbSymbolTable
 70
     1
  0
LTYPE
  5
14
330
5
100
AcDbSymbolTableRecord
100
AcDbLinetypeTableRecord
  2
BYBLOCK
 70
     0
  3

 72
    65
 73
     0
 40
0.0
  0
LTYPE
  5
15
330
5
100
AcDbSymbolTableRecord
100
AcDbLinetypeTableRecord
  2
BYLAYER
 70
     0
  3

 72
    65
 73
     0
 40
0.0
  0
LTYPE
  5
16
330
5
100
AcDbSymbolTableRecord
100
AcDbLinetypeTableRecord
  2
CONTINUOUS
 70
     0
  3
Solid line
 72
    65
 73
     0
 40
0.0
  0
ENDTAB
  0
TABLE
  2
LAYER
  5
2
100
AcDbSymbolTable
 70
1
  0
LAYER
  5
50
100
AcDbSymbolTableRecord
100
AcDbLayerTableRecord
  2
0
 70
0
  6
CONTINUOUS
  0
ENDTAB
  0
TABLE
  2
STYLE
  5
3
330
0
100
AcDbSymbolTable
 70
     1
  0
STYLE
  5
11
330
3
100
AcDbSymbolTableRecord
100
AcDbTextStyleTableRecord
  2
STANDARD
 70
     0
 40
0.0
 41
1.0
 50
0.0
 71
     0
 42
2.5
  3
txt
  4

  0
ENDTAB
  0
TABLE
  2
VIEW
  5
6
330
0
100
AcDbSymbolTable
 70
     0
  0
ENDTAB
  0
TABLE
  2
UCS
  5
7
330
0
100
AcDbSymbolTable
 70
     0
  0
ENDTAB
  0
TABLE
  2
APPID
  5
9
330
0
100
AcDbSymbolTable
 70
     2
  0
APPID
  5
12
330
9
100
AcDbSymbolTableRecord
100
AcDbRegAppTableRecord
  2
ACAD
 70
     0
  0
ENDTAB
  0
TABLE
  2
DIMSTYLE
  5
A
330
0
100
AcDbSymbolTable
 70
     1
  0
DIMSTYLE
105
27
330
A
100
AcDbSymbolTableRecord
100
AcDbDimStyleTableRecord
  2
ISO-25
 70
     0
  3

  4

  5

  6

  7

 40
1.0
 41
2.5
 42
0.625
 43
3.75
 44
1.25
 45
0.0
 46
0.0
 47
0.0
 48
0.0
140
2.5
141
2.5
142
0.0
143
0.03937007874016
144
1.0
145
0.0
146
1.0
147
0.625
 71
     0
 72
     0
 73
     0
 74
     0
 75
     0
 76
     0
 77
     1
 78
     8
170
     0
171
     3
172
     1
173
     0
174
     0
175
     0
176
     0
177
     0
178
     0
270
     2
271
     2
272
     2
273
     2
274
     3
340
11
275
     0
280
     0
281
     0
282
     0
283
     0
284
     8
285
     0
286
     0
287
     3
288
     0
  0
ENDTAB
  0
TABLE
  2
BLOCK_RECORD
  5
1
330
0
100
AcDbSymbolTable
 70
     1
  0
BLOCK_RECORD
  5
1F
330
1
100
AcDbSymbolTableRecord
100
AcDbBlockTableRecord
  2
*MODEL_SPACE
  0
BLOCK_RECORD
  5
1B
330
1
100
AcDbSymbolTableRecord
100
AcDbBlockTableRecord
  2
*PAPER_SPACE
  0
ENDTAB
  0
ENDSEC
  0
SECTION
  2
BLOCKS
  0
BLOCK
  5
20
330
1F
100
AcDbEntity
  8
0
100
AcDbBlockBegin
  2
*MODEL_SPACE
 70
     0
 10
0.0
 20
0.0
 30
0.0
  3
*MODEL_SPACE
  1

  0
ENDBLK
  5
21
330
1F
100
AcDbEntity
  8
0
100
AcDbBlockEnd
  0
BLOCK
  5
1C
330
1B
100
AcDbEntity
 67
     1
  8
0
100
AcDbBlockBegin
  2
*PAPER_SPACE
  1

  0
ENDBLK
  5
1D
330
1B
100
AcDbEntity
 67
     1
  8
0
100
AcDbBlockEnd
  0
ENDSEC
  0
SECTION
  2
ENTITIES
  0
SPLINE
  5
100
100
AcDbEntity
  8
0
 62
7
100
AcDbSpline
 70
8
 71
3
 72
8
 73
4
 74
0
 40
0
 40
0
 40
0
 40
0
 40
1
 40
1
 40
1
 40
1
 10
637.795414
 20
2018.558688
 30
0.0
 10
637.795414
 20
1973.743280
 30
0.0
 10
657.622481
 20
1931.223999
 30
0.0
 10
691.953075
 20
1902.417210
 30
0.0
  0
SPLINE
  5
101
100
AcDbEntity
  8
0
 62
7
100
AcDbSpline
 70
8
 71
3
 72
8
 73
4
 74
0
 40
0
 40
0
 40
0
 40
0
 40
1
 40
1
 40
1
 40
1
 10
691.953075
 20
1902.417210
 30
0.0
 10
726.283669
 20
1873.610421
 30
0.0
 10
771.599920
 20
1861.467968
 30
0.0
 10
815.734481
 20
1869.250082
 30
0.0
  0
SPLINE
  5
102
100
AcDbEntity
  8
0
 62
7
100
AcDbSpline
 70
8
 71
3
 72
8
 73
4
 74
0
 40
0
 40
0
 40
0
 40
0
 40
1
 40
1
 40
1
 40
1
 10
5442.785972
 20
3853.638423
 30
0.0
 10
5442.785972
 20
3898.453831
 30
0.0
 10
5422.958906
 20
3940.973112
 30
0.0
 10
5388.628312
 20
3969.779901
 30
0.0
  0
SPLINE
  5
103
100
AcDbEntity
  8
0
 62
7
100
AcDbSpline
 70
8
 71
3
 72
8
 73
4
 74
0
 40
0
 40
0
 40
0
 40
0
 40
1
 40
1
 40
1
 40
1
 10
5388.628312
 20
3969.779901
 30
0.0
 10
5354.297718
 20
3998.586690
 30
0.0
 10
5308.981467
 20
4010.729143
 30
0.0
 10
5264.846906
 20
4002.947029
 30
0.0
  0
SPLINE
  5
104
100
AcDbEntity
  8
0
 62
7
100
AcDbSpline
 70
8
 71
3
 72
8
 73
4
 74
0
 40
0
 40
0
 40
0
 40
0
 40
1
 40
1
 40
1
 40
1
 10
4741.497984
 20
3910.666493
 30
0.0
 10
4630.505273
 20
3891.095483
 30
0.0
 10
4549.585429
 20
3794.658969
 30
0.0
 10
4549.585429
 20
3681.954016
 30
0.0
  0
SPLINE
  5
105
100
AcDbEntity
  8
0
 62
7
100
AcDbSpline
 70
8
 71
3
 72
8
 73
4
 74
0
 40
0
 40
0
 40
0
 40
0
 40
1
 40
1
 40
1
 40
1
 10
4549.585429
 20
2708.312810
 30
0.0
 10
4549.585429
 20
2663.497402
 30
0.0
 10
4569.412496
 20
2620.978122
 30
0.0
 10
4603.743090
 20
2592.171333
 30
0.0
  0
SPLINE
  5
106
100
AcDbEntity
  8
0
 62
7
100
AcDbSpline
 70
8
 71
3
 72
8
 73
4
 74
0
 40
0
 40
0
 40
0
 40
0
 40
1
 40
1
 40
1
 40
1
 10
4603.743090
 20
2592.171333
 30
0.0
 10
4638.073684
 20
2563.364544
 30
0.0
 10
4683.389935
 20
2551.222091
 30
0.0
 10
4727.524496
 20
2559.004205
 30
0.0
  0
SPLINE
  5
107
100
AcDbEntity
  8
0
 62
7
100
AcDbSpline
 70
8
 71
3
 72
8
 73
4
 74
0
 40
0
 40
0
 40
0
 40
0
 40
1
 40
1
 40
1
 40
1
 10
5250.873417
 20
2651.284740
 30
0.0
 10
5361.866129
 20
2670.855750
 30
0.0
 10
5442.785972
 20
2767.292264
 30
0.0
 10
5442.785972
 20
2879.997217
 30
0.0
  0
SPLINE
  5
108
100
AcDbEntity
  8
0
 62
7
100
AcDbSpline
 70
8
 71
3
 72
8
 73
4
 74
0
 40
0
 40
0
 40
0
 40
0
 40
1
 40
1
 40
1
 40
1
 10
6961.925086
 20
4657.628648
 30
0.0
 10
6961.925086
 20
4592.356080
 30
0.0
 10
6990.802733
 20
4530.427766
 30
0.0
 10
7040.804422
 20
4488.471368
 30
0.0
  0
SPLINE
  5
109
100
AcDbEntity
  8
0
 62
7
100
AcDbSpline
 70
8
 71
3
 72
8
 73
4
 74
0
 40
0
 40
0
 40
0
 40
0
 40
1
 40
1
 40
1
 40
1
 10
7040.804422
 20
4488.471368
 30
0.0
 10
7090.806110
 20
4446.514970
 30
0.0
 10
7156.808144
 20
4428.829778
 30
0.0
 10
7221.089075
 20
4440.164240
 30
0.0
  0
SPLINE
  5
10a
100
AcDbEntity
  8
0
 62
7
100
AcDbSpline
 70
8
 71
3
 72
8
 73
4
 74
0
 40
0
 40
0
 40
0
 40
0
 40
1
 40
1
 40
1
 40
1
 10
3392.992206
 20
4028.329489
 30
0.0
 10
3392.992206
 20
3963.056921
 30
0.0
 10
3421.869853
 20
3901.128607
 30
0.0
 10
3471.871541
 20
3859.172209
 30
0.0
  0
SPLINE
  5
10b
100
AcDbEntity
  8
0
 62
7
100
AcDbSpline
 70
8
 71
3
 72
8
 73
4
 74
0
 40
0
 40
0
 40
0
 40
0
 40
1
 40
1
 40
1
 40
1
 10
3471.871541
 20
3859.172209
 30
0.0
 10
3521.873230
 20
3817.215811
 30
0.0
 10
3587.875264
 20
3799.530619
 30
0.0
 10
3652.156196
 20
3810.865082
 30
0.0
  0
SPLINE
  5
10c
100
AcDbEntity
  8
0
 62
7
100
AcDbSpline
 70
8
 71
3
 72
8
 73
4
 74
0
 40
0
 40
0
 40
0
 40
0
 40
1
 40
1
 40
1
 40
1
 10
3044.148615
 20
4267.215224
 30
0.0
 10
3177.248807
 20
4292.083703
 30
0.0
 10
3273.733833
 20
4408.265685
 30
0.0
 10
3273.733833
 20
4543.669165
 30
0.0
  0
SPLINE
  5
10d
100
AcDbEntity
  8
0
 62
7
100
AcDbSpline
 70
8
 71
3
 72
8
 73
4
 74
0
 40
0
 40
0
 40
0
 40
0
 40
1
 40
1
 40
1
 40
1
 10
3273.733833
 20
5397.315775
 30
0.0
 10
3272.153634
 20
5462.399721
 30
0.0
 10
3240.420183
 20
5523.054306
 30
0.0
 10
3187.854515
 20
5561.463519
 30
0.0
  0
SPLINE
  5
10e
100
AcDbEntity
  8
0
 62
7
100
AcDbSpline
 70
8
 71
3
 72
8
 73
4
 74
0
 40
0
 40
0
 40
0
 40
0
 40
1
 40
1
 40
1
 40
1
 10
3187.854515
 20
5561.463519
 30
0.0
 10
3135.288847
 20
5599.872732
 30
0.0
 10
3067.859696
 20
5611.675278
 30
0.0
 10
3005.372958
 20
5593.404408
 30
0.0
  0
SPLINE
  5
10f
100
AcDbEntity
  8
0
 62
7
100
AcDbSpline
 70
8
 71
3
 72
8
 73
4
 74
0
 40
0
 40
0
 40
0
 40
0
 40
1
 40
1
 40
1
 40
1
 10
1593.400288
 20
5479.398343
 30
0.0
 10
1593.400288
 20
5456.571609
 30
0.0
 10
1603.499207
 20
5434.914408
 30
0.0
 10
1620.985499
 20
5420.241666
 30
0.0
  0
SPLINE
  5
110
100
AcDbEntity
  8
0
 62
7
100
AcDbSpline
 70
8
 71
3
 72
8
 73
4
 74
0
 40
0
 40
0
 40
0
 40
0
 40
1
 40
1
 40
1
 40
1
 10
1620.985499
 20
5420.241666
 30
0.0
 10
1638.471792
 20
5405.568924
 30
0.0
 10
1661.553630
 20
5399.384164
 30
0.0
 10
1684.033575
 20
5403.347985
 30
0.0
  0
SPLINE
  5
111
100
AcDbEntity
  8
0
 62
7
100
AcDbSpline
 70
8
 71
3
 72
8
 73
4
 74
0
 40
0
 40
0
 40
0
 40
0
 40
1
 40
1
 40
1
 40
1
 10
913.143215
 20
5224.487855
 30
0.0
 10
753.895692
 20
5196.408219
 30
0.0
 10
637.795415
 20
5058.045297
 30
0.0
 10
637.795415
 20
4896.341124
 30
0.0
  0
SPLINE
  5
112
100
AcDbEntity
  8
0
 62
7
100
AcDbSpline
 70
8
 71
3
 72
8
 73
4
 74
0
 40
0
 40
0
 40
0
 40
0
 40
1
 40
1
 40
1
 40
1
 10
637.795414
 20
3529.142963
 30
0.0
 10
637.795414
 20
3467.186828
 30
0.0
 10
665.205818
 20
3408.405028
 30
0.0
 10
712.666971
 20
3368.580392
 30
0.0
  0
SPLINE
  5
113
100
AcDbEntity
  8
0
 62
7
100
AcDbSpline
 70
8
 71
3
 72
8
 73
4
 74
0
 40
0
 40
0
 40
0
 40
0
 40
1
 40
1
 40
1
 40
1
 10
712.666971
 20
3368.580392
 30
0.0
 10
760.128124
 20
3328.755756
 30
0.0
 10
822.776662
 20
3311.969131
 30
0.0
 10
883.791544
 20
3322.727701
 30
0.0
  0
LWPOLYLINE
  5
114
100
AcDbEntity
  8
0
 62
7
100
AcDbPolyline
 90
3
 70
0
 10
4943.624533
 20
3679.399944
 30
0.0
 10
4943.624533
 20
2862.948007
 30
0.0
 10
5048.746869
 20
2883.665599
 30
0.0
  0
LWPOLYLINE
  5
115
100
AcDbEntity
  8
0
 62
7
100
AcDbPolyline
 90
2
 70
0
 10
5048.746869
 20
3700.117536
 30
0.0
 10
5048.746869
 20
2883.665599
 30
0.0
  0
LWPOLYLINE
  5
116
100
AcDbEntity
  8
0
 62
7
100
AcDbPolyline
 90
2
 70
0
 10
4943.624533
 20
3679.399944
 30
0.0
 10
5048.746869
 20
3700.117536
 30
0.0
  0
LWPOLYLINE
  5
117
100
AcDbEntity
  8
0
 62
7
100
AcDbPolyline
 90
3
 70
0
 10
1530.698915
 20
3344.515988
 30
0.0
 10
1530.698915
 20
1995.317602
 30
0.0
 10
815.734481
 20
1869.250082
 30
0.0
  0
LWPOLYLINE
  5
118
100
AcDbEntity
  8
0
 62
7
100
AcDbPolyline
 90
7
 70
0
 10
637.795414
 20
2018.558687
 30
0.0
 10
637.795414
 20
3187.073009
 30
0.0
 10
1031.815378
 20
3256.549360
 30
0.0
 10
1031.815378
 20
2285.519489
 30
0.0
 10
1136.678951
 20
2189.390367
 30
0.0
 10
1136.678951
 20
3275.039637
 30
0.0
 10
1530.698915
 20
3344.515988
 30
0.0
  0
LWPOLYLINE
  5
119
100
AcDbEntity
  8
0
 62
7
100
AcDbPolyline
 90
10
 70
1
 10
2514.605418
 20
2168.806865
 30
0.0
 10
2514.605418
 20
3518.005251
 30
0.0
 10
2120.109831
 20
3448.445036
 30
0.0
 10
2120.109831
 20
3093.615584
 30
0.0
 10
1967.221056
 20
3421.486619
 30
0.0
 10
1621.412474
 20
3360.511236
 30
0.0
 10
1621.412474
 20
2011.312850
 30
0.0
 10
2015.908061
 20
2080.873066
 30
0.0
 10
2015.908061
 20
2435.702518
 30
0.0
 10
2168.796836
 20
2107.831482
 30
0.0
  0
LWPOLYLINE
  5
11a
100
AcDbEntity
  8
0
 62
7
100
AcDbPolyline
 90
11
 70
1
 10
3306.959835
 20
3015.441752
 30
0.0
 10
3524.852779
 20
3696.139118
 30
0.0
 10
3157.621051
 20
3631.386256
 30
0.0
 10
3005.372958
 20
3155.763349
 30
0.0
 10
3005.372958
 20
3604.540810
 30
0.0
 10
2610.877371
 20
3534.980594
 30
0.0
 10
2610.877371
 20
2185.782208
 30
0.0
 10
3005.372958
 20
2255.342423
 30
0.0
 10
3005.372958
 20
2660.379776
 30
0.0
 10
3131.595191
 20
2277.598809
 30
0.0
 10
3527.258532
 20
2347.364931
 30
0.0
  0
LWPOLYLINE
  5
11b
100
AcDbEntity
  8
0
 62
7
100
AcDbPolyline
 90
10
 70
1
 10
4456.358861
 20
2511.190387
 30
0.0
 10
4456.358861
 20
3860.388773
 30
0.0
 10
4061.863274
 20
3790.828557
 30
0.0
 10
4061.863274
 20
3435.999106
 30
0.0
 10
3908.974499
 20
3763.870141
 30
0.0
 10
3563.165917
 20
3702.894758
 30
0.0
 10
3563.165917
 20
2353.696372
 30
0.0
 10
3957.661504
 20
2423.256588
 30
0.0
 10
3957.661504
 20
2778.086039
 30
0.0
 10
4110.550280
 20
2450.215004
 30
0.0
  0
LWPOLYLINE
  5
11c
100
AcDbEntity
  8
0
 62
7
100
AcDbPolyline
 90
2
 70
0
 10
5442.785972
 20
2879.997217
 30
0.0
 10
5442.785972
 20
3853.638423
 30
0.0
  0
LWPOLYLINE
  5
11d
100
AcDbEntity
  8
0
 62
7
100
AcDbPolyline
 90
2
 70
0
 10
5264.846906
 20
4002.947029
 30
0.0
 10
4741.497984
 20
3910.666493
 30
0.0
  0
LWPOLYLINE
  5
11e
100
AcDbEntity
  8
0
 62
7
100
AcDbPolyline
 90
2
 70
0
 10
4549.585429
 20
3681.954017
 30
0.0
 10
4549.585429
 20
2708.312810
 30
0.0
  0
LWPOLYLINE
  5
11f
100
AcDbEntity
  8
0
 62
7
100
AcDbPolyline
 90
2
 70
0
 10
4727.524496
 20
2559.004205
 30
0.0
 10
5250.873417
 20
2651.284740
 30
0.0
  0
LWPOLYLINE
  5
120
100
AcDbEntity
  8
0
 62
7
100
AcDbPolyline
 90
13
 70
1
 10
6303.510395
 20
4186.091426
 30
0.0
 10
6438.621706
 20
3744.162239
 30
0.0
 10
6438.621706
 20
4209.915195
 30
0.0
 10
6833.149988
 20
4279.481176
 30
0.0
 10
6833.149988
 20
2930.282790
 30
0.0
 10
6340.827130
 20
2843.472987
 30
0.0
 10
6189.511100
 20
3327.662698
 30
0.0
 10
6033.743580
 20
2789.325872
 30
0.0
 10
5541.802195
 20
2702.583332
 30
0.0
 10
5541.802195
 20
4051.781719
 30
0.0
 10
5936.330477
 20
4121.347700
 30
0.0
 10
5936.330477
 20
3655.594744
 30
0.0
 10
6072.136070
 20
4145.293889
 30
0.0
  0
LWPOLYLINE
  5
121
100
AcDbEntity
  8
0
 62
7
100
AcDbPolyline
 90
10
 70
1
 10
6925.174682
 20
2946.509226
 30
0.0
 10
6925.174682
 20
4295.707613
 30
0.0
 10
7270.983263
 20
4356.682996
 30
0.0
 10
7423.872038
 20
4028.811960
 30
0.0
 10
7423.872038
 20
4383.641411
 30
0.0
 10
7818.367625
 20
4453.201628
 30
0.0
 10
7818.367625
 20
3104.003241
 30
0.0
 10
7472.559043
 20
3043.027858
 30
0.0
 10
7319.670269
 20
3370.898894
 30
0.0
 10
7319.670269
 20
3016.069442
 30
0.0
  0
LWPOLYLINE
  5
122
100
AcDbEntity
  8
0
 62
7
100
AcDbPolyline
 90
2
 70
0
 10
6961.925086
 20
6291.051299
 30
0.0
 10
6961.925086
 20
4657.628648
 30
0.0
  0
LWPOLYLINE
  5
123
100
AcDbEntity
  8
0
 62
7
100
AcDbPolyline
 90
2
 70
0
 10
7818.367625
 20
4545.480563
 30
0.0
 10
7221.089075
 20
4440.164240
 30
0.0
  0
LWPOLYLINE
  5
124
100
AcDbEntity
  8
0
 62
7
100
AcDbPolyline
 90
2
 70
0
 10
7818.367625
 20
4922.371784
 30
0.0
 10
7818.367625
 20
4545.480563
 30
0.0
  0
LWPOLYLINE
  5
125
100
AcDbEntity
  8
0
 62
7
100
AcDbPolyline
 90
2
 70
0
 10
7517.295234
 20
4869.284597
 30
0.0
 10
7818.367625
 20
4922.371784
 30
0.0
  0
LWPOLYLINE
  5
126
100
AcDbEntity
  8
0
 62
7
100
AcDbPolyline
 90
2
 70
0
 10
7517.295234
 20
5253.836848
 30
0.0
 10
7517.295234
 20
4869.284597
 30
0.0
  0
LWPOLYLINE
  5
127
100
AcDbEntity
  8
0
 62
7
100
AcDbPolyline
 90
2
 70
0
 10
7705.279952
 20
5286.983625
 30
0.0
 10
7517.295234
 20
5253.836848
 30
0.0
  0
LWPOLYLINE
  5
128
100
AcDbEntity
  8
0
 62
7
100
AcDbPolyline
 90
2
 70
0
 10
7809.556394
 20
5749.066901
 30
0.0
 10
7705.279952
 20
5286.983625
 30
0.0
  0
LWPOLYLINE
  5
129
100
AcDbEntity
  8
0
 62
7
100
AcDbPolyline
 90
2
 70
0
 10
7517.295234
 20
5697.533373
 30
0.0
 10
7809.556394
 20
5749.066901
 30
0.0
  0
LWPOLYLINE
  5
12a
100
AcDbEntity
  8
0
 62
7
100
AcDbPolyline
 90
2
 70
0
 10
7517.295234
 20
6012.086821
 30
0.0
 10
7517.295234
 20
5697.533373
 30
0.0
  0
LWPOLYLINE
  5
12b
100
AcDbEntity
  8
0
 62
7
100
AcDbPolyline
 90
2
 70
0
 10
7818.367625
 20
6065.174006
 30
0.0
 10
7517.295234
 20
6012.086821
 30
0.0
  0
LWPOLYLINE
  5
12c
100
AcDbEntity
  8
0
 62
7
100
AcDbPolyline
 90
2
 70
0
 10
7818.367625
 20
6442.065226
 30
0.0
 10
7818.367625
 20
6065.174006
 30
0.0
  0
LWPOLYLINE
  5
12d
100
AcDbEntity
  8
0
 62
7
100
AcDbPolyline
 90
2
 70
0
 10
6961.925086
 20
6291.051299
 30
0.0
 10
7818.367625
 20
6442.065226
 30
0.0
  0
LWPOLYLINE
  5
12e
100
AcDbEntity
  8
0
 62
7
100
AcDbPolyline
 90
8
 70
1
 10
5941.215079
 20
4214.487923
 30
0.0
 10
5941.215079
 20
5734.181366
 30
0.0
 10
5588.225359
 20
5671.939754
 30
0.0
 10
5499.212557
 20
6033.135615
 30
0.0
 10
6851.160995
 20
6271.520601
 30
0.0
 10
6851.160995
 20
5894.629382
 30
0.0
 10
6496.585228
 20
5832.108107
 30
0.0
 10
6496.585228
 20
4312.414664
 30
0.0
  0
LWPOLYLINE
  5
12f
100
AcDbEntity
  8
0
 62
7
100
AcDbPolyline
 90
3
 70
1
 10
4770.594361
 20
4217.611202
 30
0.0
 10
5004.518337
 20
4908.244139
 30
0.0
 10
5238.380269
 20
4300.094480
 30
0.0
  0
LWPOLYLINE
  5
130
100
AcDbEntity
  8
0
 62
7
100
AcDbPolyline
 90
3
 70
1
 10
5004.518337
 20
6451.689951
 30
0.0
 10
4139.129530
 20
3896.731619
 30
0.0
 10
5869.677614
 20
4201.873937
 30
0.0
  0
LWPOLYLINE
  5
131
100
AcDbEntity
  8
0
 62
7
100
AcDbPolyline
 90
4
 70
1
 10
2718.363685
 20
5165.905710
 30
0.0
 10
2718.363685
 20
4594.504598
 30
0.0
 10
2573.580031
 20
4404.399786
 30
0.0
 10
2573.580031
 20
5140.376445
 30
0.0
  0
LWPOLYLINE
  5
132
100
AcDbEntity
  8
0
 62
7
100
AcDbPolyline
 90
14
 70
0
 10
3392.992206
 20
4028.329489
 30
0.0
 10
3392.992206
 20
5661.752140
 30
0.0
 10
4509.732995
 20
5858.663672
 30
0.0
 10
4421.156968
 20
5466.154109
 30
0.0
 10
3948.362354
 20
5382.787661
 30
0.0
 10
3948.362354
 20
5070.316845
 30
0.0
 10
4347.720863
 20
5140.734525
 30
0.0
 10
4242.003698
 20
4672.266935
 30
0.0
 10
3948.362354
 20
4620.490044
 30
0.0
 10
3948.362354
 20
4239.985439
 30
0.0
 10
4152.578461
 20
4275.994248
 30
0.0
 10
4064.002434
 20
3883.484685
 30
0.0
 10
3948.362354
 20
3863.094219
 30
0.0
 10
3652.156196
 20
3810.865082
 30
0.0
  0
LWPOLYLINE
  5
133
100
AcDbEntity
  8
0
 62
7
100
AcDbPolyline
 90
7
 70
0
 10
2018.209883
 20
5419.340924
 30
0.0
 10
2018.209883
 20
3522.756261
 30
0.0
 10
2573.580031
 20
3620.683003
 30
0.0
 10
2573.580031
 20
3997.574222
 30
0.0
 10
2751.579223
 20
3652.069063
 30
0.0
 10
3310.307426
 20
3750.587920
 30
0.0
 10
3044.148615
 20
4267.215224
 30
0.0
  0
LWPOLYLINE
  5
134
100
AcDbEntity
  8
0
 62
7
100
AcDbPolyline
 90
2
 70
0
 10
3273.733833
 20
4543.669166
 30
0.0
 10
3273.733833
 20
5397.315775
 30
0.0
  0
LWPOLYLINE
  5
135
100
AcDbEntity
  8
0
 62
7
100
AcDbPolyline
 90
2
 70
0
 10
3005.372958
 20
5593.404408
 30
0.0
 10
2018.209883
 20
5419.340924
 30
0.0
  0
LWPOLYLINE
  5
136
100
AcDbEntity
  8
0
 62
7
100
AcDbPolyline
 90
2
 70
0
 10
1593.400288
 20
6050.389033
 30
0.0
 10
1593.400288
 20
5479.398344
 30
0.0
  0
LWPOLYLINE
  5
137
100
AcDbEntity
  8
0
 62
7
100
AcDbPolyline
 90
12
 70
0
 10
1684.033575
 20
5403.347985
 30
0.0
 10
1893.299057
 20
5440.247136
 30
0.0
 10
1893.299057
 20
5570.780704
 30
0.0
 10
1788.778908
 20
5552.350982
 30
0.0
 10
1788.778908
 20
5687.474948
 30
0.0
 10
1853.463385
 20
5698.880567
 30
0.0
 10
1889.985788
 20
5860.723372
 30
0.0
 10
1788.778908
 20
5842.877868
 30
0.0
 10
1788.778908
 20
5954.305988
 30
0.0
 10
1893.649594
 20
5972.797519
 30
0.0
 10
1893.649594
 20
6103.331087
 30
0.0
 10
1593.400288
 20
6050.389033
 30
0.0
  0
LWPOLYLINE
  5
138
100
AcDbEntity
  8
0
 62
7
100
AcDbPolyline
 90
12
 70
1
 10
1111.646575
 20
5965.442855
 30
0.0
 10
1111.646575
 20
5302.420714
 30
0.0
 10
1303.747209
 20
5336.293238
 30
0.0
 10
1303.747209
 20
5601.891108
 30
0.0
 10
1354.656614
 20
5610.867810
 30
0.0
 10
1354.656614
 20
5345.269940
 30
0.0
 10
1546.757247
 20
5379.142465
 30
0.0
 10
1546.757247
 20
6042.164606
 30
0.0
 10
1354.656614
 20
6008.292082
 30
0.0
 10
1354.656614
 20
5767.448045
 30
0.0
 10
1303.747209
 20
5758.471343
 30
0.0
 10
1303.747209
 20
5999.315380
 30
0.0
  0
LWPOLYLINE
  5
139
100
AcDbEntity
  8
0
 62
7
100
AcDbPolyline
 90
8
 70
1
 10
762.961522
 20
5772.640806
 30
0.0
 10
762.961522
 20
5240.938131
 30
0.0
 10
955.062155
 20
5274.810656
 30
0.0
 10
955.062155
 20
5806.513331
 30
0.0
 10
1080.110687
 20
5828.562761
 30
0.0
 10
1080.110687
 20
5959.882227
 30
0.0
 10
637.795414
 20
5881.890111
 30
0.0
 10
637.795414
 20
5750.570645
 30
0.0
  0
LWPOLYLINE
  5
13a
100
AcDbEntity
  8
0
 62
7
100
AcDbPolyline
 90
2
 70
0
 10
637.795414
 20
3529.142963
 30
0.0
 10
637.795414
 20
4896.341124
 30
0.0
  0
LWPOLYLINE
  5
13b
100
AcDbEntity
  8
0
 62
7
100
AcDbPolyline
 90
12
 70
0
 10
913.143215
 20
5224.487855
 30
0.0
 10
1893.299057
 20
5397.315775
 30
0.0
 10
1893.299057
 20
4761.362612
 30
0.0
 10
1337.928908
 20
4421.031348
 30
0.0
 10
1337.928908
 20
4922.497814
 30
0.0
 10
1193.165562
 20
4896.972130
 30
0.0
 10
1193.165562
 20
3754.169907
 30
0.0
 10
1337.928908
 20
3779.695591
 30
0.0
 10
1337.928908
 20
4150.820601
 30
0.0
 10
1893.299057
 20
4491.151865
 30
0.0
 10
1893.299057
 20
3500.731112
 30
0.0
 10
883.791544
 20
3322.727701
 30
0.0
  0
ENDSEC
  0
SECTION
  2
OBJECTS
  0
DICTIONARY
  5
C
330
0
100
AcDbDictionary
  3
ACAD_GROUP
350
D
  3
ACAD_MLINESTYLE
350
17
  0
DICTIONARY
  5
D
330
C
100
AcDbDictionary
  0
DICTIONARY
  5
1A
330
C
100
AcDbDictionary
  0
DICTIONARY
  5
17
330
C
100
AcDbDictionary
  3
STANDARD
350
18
  0
DICTIONARY
  5
19
330
C
100
AcDbDictionary
  0
ENDSEC
  0
EOF
